<?xml version="1.0" encoding="utf-8"?>
<!-- Generator: Adobe Illustrator 21.1.0, SVG Export Plug-In . SVG Version: 6.00 Build 0)  -->
<svg version="1.1" id="Layer_1" xmlns="http://www.w3.org/2000/svg" xmlns:xlink="http://www.w3.org/1999/xlink" x="0px" y="0px"
	 viewBox="0 0 435 48" style="enable-background:new 0 0 435 48;" xml:space="preserve">
<style type="text/css">
	.st0{fill:#963333;}
</style>
<path class="st0" d="M25.3,1.1C12.7,1.1,2.4,11.4,2.4,24s10.2,22.9,22.9,22.9S48.2,36.6,48.2,24l0,0C48.2,11.4,37.9,1.1,25.3,1.1z
	 M40.7,25.1c-1.1,1.1-23.9,13.2-23.9,13.2c-0.8,0-1.5-0.7-1.5-1.5V11.1c0-0.8,0.7-1.5,1.5-1.5h0l23.9,13.2
	C41.3,23.5,41.3,24.4,40.7,25.1C40.8,25.1,40.7,25.1,40.7,25.1z"/>
<path class="st0" d="M82.2,1.1C69.6,1.1,59.3,11.4,59.3,24s10.2,22.9,22.9,22.9s22.9-10.2,22.9-22.9l0,0
	C105.1,11.4,94.8,1.1,82.2,1.1z M78.7,35.1c0,1.9-1.6,2.5-3.5,2.5s-3.5-0.6-3.5-2.5V12.9c0-1.9,1.6-2.5,3.5-2.5s3.5,0.6,3.5,2.5
	L78.7,35.1z M92.3,35.1c0,1.9-1.6,2.5-3.5,2.5s-3.5-0.6-3.5-2.5V12.9c0-1.9,1.6-2.5,3.5-2.5s3.5,0.6,3.5,2.5V35.1z"/>
<path class="st0" d="M137.4,0.6C124.5,0.6,114,11.1,114,24s10.5,23.4,23.4,23.4s23.4-10.5,23.4-23.4S150.3,0.6,137.4,0.6z
	 M148.4,34.9h-21.9V13.1h21.9V34.9z"/>
</svg>
