<svg id="Layer_1" data-name="Layer 1" xmlns="http://www.w3.org/2000/svg" viewBox="0 0 48.74 48.74"><defs><style>.cls-1{fill:#fff;}</style></defs><title>pause</title><path class="cls-1" d="M25.25.63A24.37,24.37,0,1,0,49.62,25,24.37,24.37,0,0,0,25.25.63ZM21.48,36.82c0,2.06-1.67,2.7-3.73,2.7S14,38.88,14,36.82V13.18c0-2.06,1.67-2.7,3.73-2.7s3.73.63,3.73,2.7Zm14.51,0c0,2.06-1.67,2.7-3.73,2.7s-3.73-.63-3.73-2.7V13.18c0-2.06,1.67-2.7,3.73-2.7s3.73.63,3.73,2.7Z" transform="translate(-0.88 -0.63)"/></svg>